<svg xmlns="http://www.w3.org/2000/svg" viewBox="0 0 35 35"><path d="M1 1h7v7h-7zM9 1h2v3h1v1h-1v1h-1v-1h-1v-1h1v-1h-1zM12 1h2v2h1v-2h1v3h-2v4h-1v-1h-1v1h-1v-2h2v-2h-1zM17 1h1v1h-1zM19 1h4v1h1v-1h1v2h-3v-1h-3zM27 1h7v7h-7zM2 2v5h5v-5zM18 2h1v1h-1zM28 2v5h5v-5zM3 3h3v3h-3zM17 3h1v1h-1zM19 3h1v1h1v1h-1v3h1v1h-2v1h3v1h-2v1h-1v-1h-1v1h-1v-2h1v-1h-1v1h-2v-3h1v1h1v-1h-1v-1h1v-1h1v3h1zM21 3h1v1h-1zM25 3h1v3h-1zM29 3h3v3h-3zM16 4h1v1h-1zM22 4h1v3h-1zM9 7h1v1h1v1h-2zM21 7h1v1h-1zM23 7h1v2h-1zM25 7h1v2h-1zM1 9h1v1h-1zM3 9h2v1h-2zM6 9h3v1h-3zM12 9h1v1h-1zM22 9h1v1h-1zM24 9h1v4h-1v1h-1v1h-1v1h-4v-1h3v-2h1v-2h2zM27 9h1v1h1v1h1v-2h1v1h1v1h-1v3h-2v1h-1v-3h-2v-1h1zM32 9h2v3h-2v-1h1v-1h-1zM5 10h1v3h-1zM9 10h1v1h-1zM14 10h1v2h-1zM1 11h1v3h-1zM7 11h1v1h-1zM11 11h2v3h-1v-1h-1zM3 12h1v2h-1zM9 12h1v1h-1zM18 12h1v1h-1zM29 12v1h1v-1zM6 13h2v1h-2zM15 13h1v3h-1v-1h-1v-1h1zM17 13h1v1h-1zM25 13h2v2h-2zM33 13h1v1h-1zM5 14h1v1h-1zM8 14h1v1h1v1h-4v-1h2zM10 14h2v1h-2zM31 14h2v1h-2zM1 15h1v4h-1zM13 15h1v1h-1zM27 15h1v1h1v1h-1v2h-1v-1h-1v1h-3v-1h-1v1h-1v-2h1v-1h5zM3 16h1v2h-1zM10 16h1v1h1v1h-2v1h-1v-2h1zM12 16h1v1h-1zM16 16h1v1h-1zM30 16h2v2h-1v1h-1v2h-1v-1h-1v-1h1v-2h1zM5 17h3v1h-3zM14 17h2v1h2v1h-1v2h-1v-2h-2zM19 17h1v3h1v1h-3v-1h1zM24 17v1h1v-1zM12 18h1v1h-1zM32 18h2v1h-1v1h-2v-1h1zM2 19h1v1h-1zM4 19h1v2h-1v1h-1v1h-2v-1h1v-1h1v-1h1zM6 19h2v1h-1v1h1v-1h1v2h1v-3h1v1h1v1h-1v1h2v1h1v-1h1v2h1v-2h1v-1h1v2h-1v2h-2v1h-1v-1h-1v-1h-1v-1h-1v1h-2v1h2v2h1v1h-1v1h-2v-3h-2v-1h1v-1h-1v-1h1v-1h-1v1h-1zM22 19h1v1h-1zM1 20h1v1h-1zM23 20h3v2h-1v-1h-1v1h1v2h-1v-1h-2v2h-1v-1h-1v1h-1v-1h-1v-1h3v-1h2zM27 20h1v1h-1zM13 21h1v1h-1zM15 21h1v1h-1zM28 21h1v1h-1zM30 21h2v2h-2zM26 22h2v1h-2zM33 22h1v2h-2v-1h1zM4 23h2v1h-1v1h-1zM28 23h2v3h1v1h-1v1h4v1h-1v1h1v1h-3v2h1v1h-3v-1h-1v1h-2v-1h-1v-1h2v-1h1v-1h-2v1h-1v1h-1v-1h-1v1h-1v1h-1v-2h1v-1h1v-1h1v-2h1v-3h1v1h2zM2 24h1v1h-1zM6 24h1v1h-1zM11 24h1v1h-1zM1 25h1v1h-1zM5 25h1v1h-1zM17 25h2v1h-1v1h-2v-1h1zM20 25h1v1h2v2h-1v-1h-1v1h1v1h-1v2h-1v-1h-2v1h2v2h1v1h-4v-1h1v-1h-3v1h1v1h-2v-1h-2v-1h2v-1h3v-2h-1v1h-3v1h-1v-1h-1v-1h2v-2h-1v-1h2v1h2v1h2v-1h1v-1h1zM23 25h1v1h-1zM32 25h2v1h-2zM26 26v3h3v-3zM1 27h7v7h-7zM27 27h1v1h-1zM2 28v5h5v-5zM14 28v1h1v-1zM3 29h3v3h-3zM30 29v1h-1v2h1v-2h1v-1zM9 30h2v2h-2zM23 32h1v1h-1zM33 32h1v1h-1zM9 33h2v1h-2zM22 33h1v1h-1zM24 33h1v1h-1z"/></svg>