<svg xmlns="http://www.w3.org/2000/svg" viewBox="0 0 31 31"><path d="M1 1h7v7h-7zM10 1h3v1h1v-1h1v1h1v2h-1v-1h-2v1h-1v1h-1v1h-1v-1h-1v-3h1v1h1v-1h-1zM19 1h1v1h-1zM21 1h1v8h-1v2h-1v-3h1v-2h-1v-2h1zM23 1h7v7h-7zM2 2v5h5v-5zM17 2h2v1h-1v1h1v1h-3v-1h1zM24 2v5h5v-5zM3 3h3v3h-3zM25 3h3v3h-3zM14 4h1v1h-1zM12 5h1v1h-1zM11 6h1v2h-1zM17 6h1v3h-1zM9 7h1v1h1v2h1v1h1v2h-1v1h-1v-3h-1v-1h-1zM13 7h1v2h-1zM15 7h1v2h1v3h-1v-2h-2v-1h1zM19 7h1v1h-1zM1 9h1v2h-1zM7 9h1v1h-1zM18 9h1v1h-1zM22 9h2v1h-2zM26 9h3v2h-2v-1h-1zM3 10h1v1h1v-1h2v1h-1v1h-2v1h-3v-1h2zM24 10h2v1h-2zM7 11h1v1h-1zM14 11h1v1h-1zM18 11h2v1h-2zM21 11h1v1h-1zM6 12h1v1h1v1h-1v1h-1v1h-2v1h-1v-2h-1v-1h4zM8 12h2v1h-2zM15 12h1v1h-1zM17 12h1v5h-1v-1h-1v-2h1zM20 12h1v1h1v2h-3v-1h1zM25 12h2v1h-2zM13 13h1v1h1v2h-1v-1h-1zM23 13h1v1h2v1h2v3h2v2h-1v-1h-2v-1h-1v-1h1v-1h-1v1h-1v1h1v1h-3v-1h1v-2h-1zM29 13h1v2h-2v-1h1zM8 14h1v2h-2v-1h1zM10 14h1v1h-1zM1 15h1v1h-1zM6 16h1v1h2v1h1v-2h1v1h5v1h-2v1h-1v-1h-2v1h1v2h1v1h1v1h-1v1h-1v1h-1v1h-1v-2h1v-1h1v-1h-1v1h-2v-1h-4v-1h4v-2h-1v-1h-1v1h-2v-1h-1v-1h2zM20 16h1v3h1v1h1v1h1v-1h1v1h1v1h1v1h1v1h-2v1h1v1h1v1h1v1h-1v2h-2v-1h-3v-1h-2v-1h1v-1h-1v1h-1v-4h1v-1h-1v1h-2v-2h1v-2h1zM22 16h1v1h-1zM29 16h1v1h-1zM2 17h1v3h-1v2h-1v-4h1zM18 17h1v1h-1zM16 18h2v3h-1v2h1v4h-1v1h1v1h1v1h-5v-2h1v-1h1v-1h1v-1h-1v1h-2v-1h1v-1h1v-2h-2v-1h1v-1h-1v-1h2zM4 19h1v2h-1zM7 19h1v1h-1zM26 19h1v1h-1zM10 20v1h1v-1zM13 20h1v1h-1zM3 21h1v1h-1zM27 21h3v1h-3zM22 22v3h3v-3zM1 23h7v7h-7zM14 23h1v1h-1zM23 23h1v1h-1zM2 24v5h5v-5zM13 24h1v1h-1zM29 24h1v1h-1zM3 25h3v3h-3zM12 25h1v1h1v2h-1v1h-1v-2h-1v-1h1zM28 25h1v1h-1zM23 26v1h3v-1zM29 26h1v1h-1zM19 27h1v2h-1zM29 28h1v1h-1zM9 29h1v1h-1zM11 29h1v1h-1zM20 29h1v1h-1z"/></svg>