<svg xmlns="http://www.w3.org/2000/svg" viewBox="0 0 31 31"><path d="M1 1h7v7h-7zM13 1h1v1h1v1h-1v1h-2v-2h1zM15 1h1v1h-1zM20 1h2v1h-1v4h1v2h-1v-1h-1v1h-1v-1h-1v1h-1v-1h-1v1h-1v-2h2v-2h1v1h1v-1h1v-1h-1v-1h1zM23 1h7v7h-7zM2 2v5h5v-5zM9 2h2v2h-1v-1h-1zM24 2v5h5v-5zM3 3h3v3h-3zM16 3h1v1h-1zM25 3h3v3h-3zM11 4h1v2h1v1h-1v2h-1v1h-1v-2h1v-1h-1v-1h1zM14 4h1v2h-1zM9 5h1v1h-1zM9 7h1v1h-1zM13 7h1v1h-1zM16 8h1v1h-1zM18 8h1v2h-1v2h1v2h-1v-1h-1v-1h-1v1h1v2h-2v-2h-1v-1h1v-1h1v-1h1v-1h1zM20 8h1v2h-1zM1 9h1v1h-1zM3 9h1v1h1v1h-2zM5 9h1v1h-1zM7 9h1v1h-1zM12 9h2v1h-2zM25 9h1v1h-1zM28 9h1v1h-1zM8 10h1v1h-1zM14 10h1v1h-1zM21 10h1v1h-1zM23 10h2v2h1v1h-2v6h2v1h1v1h-1v2h1v2h-1v2h1v1h-2v2h-1v-1h-1v-1h1v-2h-1v1h-1v3h-3v-1h1v-1h1v-4h-1v1h-1v1h-1v2h1v1h-1v1h-2v-1h1v-1h-1v-2h1v-1h1v-2h2v-2h1v-1h1v-1h1v-6h-1v1h-2v-1h1v-1h2zM26 10h1v1h-1zM29 10h1v2h-1v1h1v3h-1v1h1v3h-1v1h-1v-2h1v-1h-1v-3h1v-1h-1v-2h-1v-1h2zM5 11h1v3h-1v-1h-2v-1h2zM7 11h1v1h-1zM11 11h3v1h-3zM19 11h1v1h-1zM1 13h2v1h1v2h-1v-1h-1v1h-1zM7 13h3v1h-1v1h1v2h-1v2h-1v-1h-1v-1h1v-1h-1v-1h1v-1h-1zM11 13h1v3h1v1h-1v1h1v-1h1v1h1v1h-1v1h1v-1h1v-1h1v-1h1v2h1v1h1v1h-1v1h-1v-1h-1v-1h-1v1h1v2h-2v-2h-2v-2h-1v1h-1zM26 13h1v5h1v1h-2v-2h-1v-1h1zM13 14h1v1h-1zM5 15h1v1h1v1h-1v2h2v1h-1v1h-1v-1h-1v-1h-1v-1h1v-1h-1v-1h1zM14 15h1v1h-1zM16 16h1v1h-1zM18 16h4v3h-1v-1h-1v-1h-2zM1 17h1v1h-1zM3 17h1v1h-1zM19 18h1v1h-1zM1 19h1v1h-1zM3 19h1v1h1v1h1v1h-3v-1h-1v-1h1zM9 20h2v2h-1v1h-1v-1h-2v-1h2zM23 20v1h1v-1zM1 21h1v1h-1zM12 21h1v1h-1zM13 22h1v1h-1zM22 22v3h3v-3zM27 22h3v2h-2v-1h-1zM1 23h7v7h-7zM10 23h1v1h-1zM12 23h1v1h-1zM14 23h1v1h-1zM23 23h1v1h-1zM2 24v5h5v-5zM11 24h1v1h2v1h-1v2h1v1h-1v1h-1v-1h-1v-1h1v-1h-1v-1h-2v-1h2zM16 24h1v1h-1zM3 25h3v3h-3zM28 25h1v1h-1zM27 26h1v1h-1zM9 27h2v1h-2zM14 27h1v1h-1zM19 27h1v1h-1zM29 27h1v1h-1zM28 28h1v1h1v1h-2zM9 29h2v1h-2z"/></svg>